<?xml version="1.0" standalone="no"?>
<!DOCTYPE svg PUBLIC "-//W3C//DTD SVG 20010904//EN"
 "http://www.w3.org/TR/2001/REC-SVG-20010904/DTD/svg10.dtd">
<svg version="1.0" xmlns="http://www.w3.org/2000/svg"
 width="512.000000pt" height="512.000000pt" viewBox="0 0 512.000000 512.000000"
 preserveAspectRatio="xMidYMid meet">
<metadata>
Created by potrace 1.11, written by Peter Selinger 2001-2013
</metadata>
<g transform="translate(0.000000,512.000000) scale(0.100000,-0.100000)"
fill="#000000" stroke="none">
<path d="M263 4583 c6 -27 44 -202 52 -233 10 -45 58 -257 60 -270 2 -8 29
-127 60 -265 31 -137 62 -277 70 -310 7 -33 33 -150 58 -260 25 -110 48 -211
51 -225 2 -14 25 -117 51 -230 26 -113 48 -212 50 -220 2 -8 8 -35 14 -60 5
-25 12 -56 15 -70 2 -14 18 -85 35 -159 17 -73 33 -143 36 -155 19 -85 24
-107 34 -151 15 -70 16 -77 45 -200 14 -60 27 -121 30 -135 3 -14 30 -137 61
-275 31 -137 58 -257 60 -265 2 -8 18 -78 35 -155 18 -77 34 -149 36 -160 2
-11 17 -76 32 -145 l28 -125 461 -3 461 -2 18 77 c10 43 19 87 21 98 2 11 8
38 14 60 6 22 13 51 15 64 3 12 12 53 20 90 9 36 18 77 20 91 3 14 7 33 10 42
5 15 9 34 19 83 4 17 70 312 80 355 14 62 107 478 110 490 3 14 51 229 60 270
8 31 47 207 58 258 6 28 14 52 17 52 5 0 34 -118 47 -190 2 -14 15 -70 28
-125 19 -81 97 -427 180 -800 8 -33 53 -233 100 -445 48 -212 88 -392 90 -400
2 -8 6 -27 10 -43 l7 -27 459 0 c359 0 461 3 464 13 2 6 7 24 10 40 15 81 13
70 60 270 20 86 36 158 41 185 3 13 18 83 35 155 17 73 33 143 35 157 3 14 19
84 35 155 17 72 33 139 35 150 2 11 6 31 9 45 3 14 7 34 9 45 2 11 18 81 36
155 18 74 34 146 37 160 2 14 43 194 89 400 47 206 87 384 89 395 1 11 22 102
44 203 23 100 44 190 46 200 2 9 17 76 34 147 16 72 32 141 35 155 2 14 40
185 85 380 117 517 151 671 151 681 0 5 -193 9 -459 9 l-459 0 -18 -77 c-21
-93 -17 -72 -38 -178 -2 -11 -18 -78 -34 -150 -35 -149 -82 -360 -88 -390 -2
-11 -10 -47 -18 -80 -9 -33 -17 -71 -20 -85 -3 -14 -28 -126 -56 -250 -28
-124 -52 -234 -54 -245 -4 -16 -87 -386 -112 -495 -3 -14 -8 -37 -11 -52 -5
-28 -19 -39 -20 -15 -1 6 -9 46 -18 87 -9 41 -25 111 -35 155 -9 44 -27 121
-38 170 -12 50 -23 101 -26 115 -4 18 -111 495 -151 670 -13 61 -58 258 -60
270 -10 46 -106 472 -109 482 -3 7 -7 25 -10 41 l-6 27 -460 0 c-428 0 -459
-1 -464 -17 -5 -19 -44 -189 -52 -233 -3 -14 -7 -33 -10 -42 -3 -9 -7 -25 -9
-35 -3 -15 -39 -175 -50 -223 -2 -8 -15 -69 -30 -135 -14 -66 -28 -127 -30
-135 -2 -8 -10 -45 -19 -81 -8 -37 -17 -78 -20 -90 -9 -46 -47 -215 -76 -339
-16 -69 -31 -136 -34 -150 -2 -14 -18 -83 -35 -155 -16 -71 -32 -141 -35 -155
-2 -14 -14 -68 -26 -120 -12 -52 -23 -102 -25 -110 -2 -8 -4 -17 -5 -20 -1 -3
-10 31 -20 75 -9 44 -30 134 -45 200 -33 146 -35 154 -41 185 -3 14 -7 33 -10
42 -3 9 -6 25 -8 35 -4 17 -63 278 -72 318 -3 11 -7 31 -10 45 -3 14 -7 33
-10 42 -3 10 -7 28 -9 40 -3 13 -23 104 -45 203 -23 99 -44 191 -46 205 -7 36
-90 404 -122 537 l-26 112 -459 1 -460 0 6 -27z"/>
</g>
</svg>
